<?xml version="1.0" encoding="UTF-8" standalone="no"?>
<!DOCTYPE svg PUBLIC "-//W3C//DTD SVG 1.1//EN"
 "http://www.w3.org/Graphics/SVG/1.1/DTD/svg11.dtd">
<!-- Generated by graphviz version 2.36.0 (20140111.2315)
 -->
<!-- Title: G Pages: 1 -->
<svg width="728pt" height="1122pt"
 viewBox="0.00 0.00 728.00 1122.00" xmlns="http://www.w3.org/2000/svg" xmlns:xlink="http://www.w3.org/1999/xlink">
<g id="graph0" class="graph" transform="scale(1 1) rotate(0) translate(4 1118)">
<title>G</title>
<polygon fill="white" stroke="none" points="-4,4 -4,-1118 724,-1118 724,4 -4,4"/>
<g id="clust1" class="cluster"><title>cluster_Global</title>
<path fill="none" stroke="gray" d="M20,-44C20,-44 700,-44 700,-44 706,-44 712,-50 712,-56 712,-56 712,-1094 712,-1094 712,-1100 706,-1106 700,-1106 700,-1106 20,-1106 20,-1106 14,-1106 8,-1100 8,-1094 8,-1094 8,-56 8,-56 8,-50 14,-44 20,-44"/>
<text text-anchor="middle" x="360" y="-1093.2" font-family="Times,serif" font-size="11.00" fill="gray">Global</text>
</g>
<g id="clust2" class="cluster"><title>cluster_\NielsHoppe</title>
<path fill="none" stroke="gray" d="M28,-52C28,-52 692,-52 692,-52 698,-52 704,-58 704,-64 704,-64 704,-1066 704,-1066 704,-1072 698,-1078 692,-1078 692,-1078 28,-1078 28,-1078 22,-1078 16,-1072 16,-1066 16,-1066 16,-64 16,-64 16,-58 22,-52 28,-52"/>
<text text-anchor="middle" x="360" y="-1065.2" font-family="Times,serif" font-size="11.00" fill="gray">NielsHoppe</text>
</g>
<g id="clust3" class="cluster"><title>cluster_\NielsHoppe\PHPCSS</title>
<path fill="none" stroke="gray" d="M36,-60C36,-60 684,-60 684,-60 690,-60 696,-66 696,-72 696,-72 696,-1038 696,-1038 696,-1044 690,-1050 684,-1050 684,-1050 36,-1050 36,-1050 30,-1050 24,-1044 24,-1038 24,-1038 24,-72 24,-72 24,-66 30,-60 36,-60"/>
<text text-anchor="middle" x="360" y="-1037.2" font-family="Times,serif" font-size="11.00" fill="gray">PHPCSS</text>
</g>
<g id="clust4" class="cluster"><title>cluster_\NielsHoppe\PHPCSS\Values</title>
<path fill="none" stroke="gray" d="M374,-464C374,-464 676,-464 676,-464 682,-464 688,-470 688,-476 688,-476 688,-1010 688,-1010 688,-1016 682,-1022 676,-1022 676,-1022 374,-1022 374,-1022 368,-1022 362,-1016 362,-1010 362,-1010 362,-476 362,-476 362,-470 368,-464 374,-464"/>
<text text-anchor="middle" x="525" y="-1009.2" font-family="Times,serif" font-size="11.00" fill="gray">Values</text>
</g>
<g id="clust5" class="cluster"><title>cluster_\NielsHoppe\PHPCSS\Syntax</title>
<path fill="none" stroke="gray" d="M178,-248C178,-248 667,-248 667,-248 673,-248 679,-254 679,-260 679,-260 679,-444 679,-444 679,-450 673,-456 667,-456 667,-456 178,-456 178,-456 172,-456 166,-450 166,-444 166,-444 166,-260 166,-260 166,-254 172,-248 178,-248"/>
<text text-anchor="middle" x="422.5" y="-443.2" font-family="Times,serif" font-size="11.00" fill="gray">Syntax</text>
</g>
<g id="clust6" class="cluster"><title>cluster_\NielsHoppe\PHPCSS\Syntax\Statements</title>
<path fill="none" stroke="gray" d="M186,-302C186,-302 659,-302 659,-302 665,-302 671,-308 671,-314 671,-314 671,-416 671,-416 671,-422 665,-428 659,-428 659,-428 186,-428 186,-428 180,-428 174,-422 174,-416 174,-416 174,-314 174,-314 174,-308 180,-302 186,-302"/>
<text text-anchor="middle" x="422.5" y="-415.2" font-family="Times,serif" font-size="11.00" fill="gray">Statements</text>
</g>
<g id="clust7" class="cluster"><title>cluster_\NielsHoppe\PHPCSS\Color</title>
<path fill="none" stroke="gray" d="M572,-114C572,-114 636,-114 636,-114 642,-114 648,-120 648,-126 648,-126 648,-228 648,-228 648,-234 642,-240 636,-240 636,-240 572,-240 572,-240 566,-240 560,-234 560,-228 560,-228 560,-126 560,-126 560,-120 566,-114 572,-114"/>
<text text-anchor="middle" x="604" y="-227.2" font-family="Times,serif" font-size="11.00" fill="gray">Color</text>
</g>
<!-- \\NielsHoppe\\PHPCSS\\Values\\StringValue -->
<g id="node1" class="node"><title>\\NielsHoppe\\PHPCSS\\Values\\StringValue</title>
<polygon fill="none" stroke="black" points="649.5,-778 558.5,-778 558.5,-742 649.5,-742 649.5,-778"/>
<text text-anchor="middle" x="604" y="-757.2" font-family="Courier,monospace" font-size="11.00">StringValue</text>
</g>
<!-- \\NielsHoppe\\PHPCSS\\Values\\Value -->
<g id="node11" class="node"><title>\\NielsHoppe\\PHPCSS\\Values\\Value</title>
<polygon fill="none" stroke="black" points="424,-751 370,-751 370,-715 424,-715 424,-751"/>
<text text-anchor="middle" x="397" y="-730.2" font-family="Courier,monospace" font-size="11.00">Value</text>
</g>
<!-- \\NielsHoppe\\PHPCSS\\Values\\StringValue&#45;&gt;\\NielsHoppe\\PHPCSS\\Values\\Value -->
<g id="edge1" class="edge"><title>\\NielsHoppe\\PHPCSS\\Values\\StringValue&#45;&gt;\\NielsHoppe\\PHPCSS\\Values\\Value</title>
<path fill="none" stroke="black" stroke-dasharray="1,5" d="M558.265,-754.108C521.111,-749.215 468.921,-742.341 434.316,-737.783"/>
<polygon fill="none" stroke="black" points="434.548,-734.283 424.177,-736.448 433.634,-741.224 434.548,-734.283"/>
</g>
<!-- \\NielsHoppe\\PHPCSS\\Values\\ValueFormatException -->
<g id="node2" class="node"><title>\\NielsHoppe\\PHPCSS\\Values\\ValueFormatException</title>
<polygon fill="none" stroke="black" points="680,-508 528,-508 528,-472 680,-472 680,-508"/>
<text text-anchor="middle" x="604" y="-487.2" font-family="Courier,monospace" font-size="11.00">ValueFormatException</text>
</g>
<!-- \\Exception -->
<g id="node22" class="node"><title>\\Exception</title>
<ellipse fill="none" stroke="black" cx="397" cy="-18" rx="48.9926" ry="18"/>
<text text-anchor="middle" x="397" y="-14.3" font-family="Times,serif" font-size="14.00" fill="gray">\Exception</text>
</g>
<!-- \\NielsHoppe\\PHPCSS\\Values\\ValueFormatException&#45;&gt;\\Exception -->
<g id="edge2" class="edge"><title>\\NielsHoppe\\PHPCSS\\Values\\ValueFormatException&#45;&gt;\\Exception</title>
<path fill="none" stroke="black" d="M571.17,-471.756C556.188,-461.736 539.195,-448.073 528,-432 439.946,-305.582 409.615,-116.949 400.976,-46.1724"/>
<polygon fill="none" stroke="black" points="404.451,-45.7539 399.812,-36.2286 397.498,-46.5677 404.451,-45.7539"/>
</g>
<!-- \\NielsHoppe\\PHPCSS\\Values\\NumberValue -->
<g id="node3" class="node"><title>\\NielsHoppe\\PHPCSS\\Values\\NumberValue</title>
<polygon fill="none" stroke="black" points="649.5,-724 558.5,-724 558.5,-688 649.5,-688 649.5,-724"/>
<text text-anchor="middle" x="604" y="-703.2" font-family="Courier,monospace" font-size="11.00">NumberValue</text>
</g>
<!-- \\NielsHoppe\\PHPCSS\\Values\\NumberValue&#45;&gt;\\NielsHoppe\\PHPCSS\\Values\\Value -->
<g id="edge3" class="edge"><title>\\NielsHoppe\\PHPCSS\\Values\\NumberValue&#45;&gt;\\NielsHoppe\\PHPCSS\\Values\\Value</title>
<path fill="none" stroke="black" stroke-dasharray="1,5" d="M558.265,-711.892C521.111,-716.785 468.921,-723.659 434.316,-728.217"/>
<polygon fill="none" stroke="black" points="433.634,-724.776 424.177,-729.552 434.548,-731.717 433.634,-724.776"/>
</g>
<!-- \\NielsHoppe\\PHPCSS\\Values\\Unit -->
<g id="node4" class="node"><title>\\NielsHoppe\\PHPCSS\\Values\\Unit</title>
<polygon fill="none" stroke="black" points="631,-832 577,-832 577,-796 631,-796 631,-832"/>
<text text-anchor="middle" x="604" y="-811.2" font-family="Courier,monospace" font-size="11.00">Unit</text>
</g>
<!-- \\NielsHoppe\\PHPCSS\\Values\\ColorValue -->
<g id="node5" class="node"><title>\\NielsHoppe\\PHPCSS\\Values\\ColorValue</title>
<polygon fill="none" stroke="black" points="646,-994 562,-994 562,-958 646,-958 646,-994"/>
<text text-anchor="middle" x="604" y="-973.2" font-family="Courier,monospace" font-size="11.00">ColorValue</text>
</g>
<!-- \\NielsHoppe\\PHPCSS\\Values\\ColorValue&#45;&gt;\\NielsHoppe\\PHPCSS\\Values\\Value -->
<g id="edge5" class="edge"><title>\\NielsHoppe\\PHPCSS\\Values\\ColorValue&#45;&gt;\\NielsHoppe\\PHPCSS\\Values\\Value</title>
<path fill="none" stroke="black" stroke-dasharray="1,5" d="M561.825,-966.767C550.025,-962.711 537.734,-956.99 528,-949 464.938,-897.239 424.788,-806.337 407.618,-760.737"/>
<polygon fill="none" stroke="black" points="410.85,-759.384 404.117,-751.204 404.279,-761.798 410.85,-759.384"/>
</g>
<!-- \\NielsHoppe\\PHPCSS\\Values\\KeywordValue -->
<g id="node6" class="node"><title>\\NielsHoppe\\PHPCSS\\Values\\KeywordValue</title>
<polygon fill="none" stroke="black" points="653,-940 555,-940 555,-904 653,-904 653,-940"/>
<text text-anchor="middle" x="604" y="-919.2" font-family="Courier,monospace" font-size="11.00">KeywordValue</text>
</g>
<!-- \\NielsHoppe\\PHPCSS\\Values\\KeywordValue&#45;&gt;\\NielsHoppe\\PHPCSS\\Values\\Value -->
<g id="edge6" class="edge"><title>\\NielsHoppe\\PHPCSS\\Values\\KeywordValue&#45;&gt;\\NielsHoppe\\PHPCSS\\Values\\Value</title>
<path fill="none" stroke="black" stroke-dasharray="1,5" d="M554.635,-909.023C545.326,-905.329 535.997,-900.709 528,-895 476.409,-858.164 434.372,-795.529 413.095,-759.896"/>
<polygon fill="none" stroke="black" points="415.973,-757.884 407.896,-751.027 409.934,-761.424 415.973,-757.884"/>
</g>
<!-- \\NielsHoppe\\PHPCSS\\Values\\PercentageValue -->
<g id="node7" class="node"><title>\\NielsHoppe\\PHPCSS\\Values\\PercentageValue</title>
<polygon fill="none" stroke="black" points="663,-886 545,-886 545,-850 663,-850 663,-886"/>
<text text-anchor="middle" x="604" y="-865.2" font-family="Courier,monospace" font-size="11.00">PercentageValue</text>
</g>
<!-- \\NielsHoppe\\PHPCSS\\Values\\PercentageValue&#45;&gt;\\NielsHoppe\\PHPCSS\\Values\\Value -->
<g id="edge7" class="edge"><title>\\NielsHoppe\\PHPCSS\\Values\\PercentageValue&#45;&gt;\\NielsHoppe\\PHPCSS\\Values\\Value</title>
<path fill="none" stroke="black" stroke-dasharray="1,5" d="M545.946,-849.851C539.748,-847.181 533.647,-844.228 528,-841 487.833,-818.035 447.825,-782.384 423.02,-758.389"/>
<polygon fill="none" stroke="black" points="425.42,-755.841 415.827,-751.344 420.522,-760.842 425.42,-755.841"/>
</g>
<!-- \\NielsHoppe\\PHPCSS\\Values\\IntegerValue -->
<g id="node8" class="node"><title>\\NielsHoppe\\PHPCSS\\Values\\IntegerValue</title>
<polygon fill="none" stroke="black" points="653,-670 555,-670 555,-634 653,-634 653,-670"/>
<text text-anchor="middle" x="604" y="-649.2" font-family="Courier,monospace" font-size="11.00">IntegerValue</text>
</g>
<!-- \\NielsHoppe\\PHPCSS\\Values\\IntegerValue&#45;&gt;\\NielsHoppe\\PHPCSS\\Values\\Value -->
<g id="edge9" class="edge"><title>\\NielsHoppe\\PHPCSS\\Values\\IntegerValue&#45;&gt;\\NielsHoppe\\PHPCSS\\Values\\Value</title>
<path fill="none" stroke="black" stroke-dasharray="1,5" d="M554.86,-668.942C545.903,-672.205 536.646,-675.65 528,-679 495.871,-691.448 459.701,-706.564 433.686,-717.633"/>
<polygon fill="none" stroke="black" points="432.066,-714.519 424.242,-721.663 434.813,-720.957 432.066,-714.519"/>
</g>
<!-- \\NielsHoppe\\PHPCSS\\Values\\URIValue -->
<g id="node9" class="node"><title>\\NielsHoppe\\PHPCSS\\Values\\URIValue</title>
<polygon fill="none" stroke="black" points="639.5,-616 568.5,-616 568.5,-580 639.5,-580 639.5,-616"/>
<text text-anchor="middle" x="604" y="-595.2" font-family="Courier,monospace" font-size="11.00">URIValue</text>
</g>
<!-- \\NielsHoppe\\PHPCSS\\Values\\URIValue&#45;&gt;\\NielsHoppe\\PHPCSS\\Values\\Value -->
<g id="edge11" class="edge"><title>\\NielsHoppe\\PHPCSS\\Values\\URIValue&#45;&gt;\\NielsHoppe\\PHPCSS\\Values\\Value</title>
<path fill="none" stroke="black" stroke-dasharray="1,5" d="M568.291,-607.697C555.215,-612.061 540.494,-617.856 528,-625 487.833,-647.965 447.825,-683.616 423.02,-707.611"/>
<polygon fill="none" stroke="black" points="420.522,-705.158 415.827,-714.656 425.42,-710.159 420.522,-705.158"/>
</g>
<!-- \\NielsHoppe\\PHPCSS\\Values\\LengthValue -->
<g id="node10" class="node"><title>\\NielsHoppe\\PHPCSS\\Values\\LengthValue</title>
<polygon fill="none" stroke="black" points="649.5,-562 558.5,-562 558.5,-526 649.5,-526 649.5,-562"/>
<text text-anchor="middle" x="604" y="-541.2" font-family="Courier,monospace" font-size="11.00">LengthValue</text>
</g>
<!-- \\NielsHoppe\\PHPCSS\\Values\\LengthValue&#45;&gt;\\NielsHoppe\\PHPCSS\\Values\\Value -->
<g id="edge12" class="edge"><title>\\NielsHoppe\\PHPCSS\\Values\\LengthValue&#45;&gt;\\NielsHoppe\\PHPCSS\\Values\\Value</title>
<path fill="none" stroke="black" stroke-dasharray="1,5" d="M558.171,-555.616C547.713,-559.518 537.01,-564.567 528,-571 476.409,-607.836 434.372,-670.471 413.095,-706.104"/>
<polygon fill="none" stroke="black" points="409.934,-704.576 407.896,-714.973 415.973,-708.116 409.934,-704.576"/>
</g>
<!-- \\NielsHoppe\\PHPCSS\\Syntax\\Statements\\ImportStatement -->
<g id="node12" class="node"><title>\\NielsHoppe\\PHPCSS\\Syntax\\Statements\\ImportStatement</title>
<polygon fill="none" stroke="black" points="663,-400 545,-400 545,-364 663,-364 663,-400"/>
<text text-anchor="middle" x="604" y="-379.2" font-family="Courier,monospace" font-size="11.00">ImportStatement</text>
</g>
<!-- \\NielsHoppe\\PHPCSS\\Syntax\\Statements\\AtRuleStatement -->
<g id="node14" class="node"><title>\\NielsHoppe\\PHPCSS\\Syntax\\Statements\\AtRuleStatement</title>
<polygon fill="none" stroke="black" points="456,-400 338,-400 338,-364 456,-364 456,-400"/>
<text text-anchor="middle" x="397" y="-379.2" font-family="Courier,monospace" font-size="11.00">AtRuleStatement</text>
</g>
<!-- \\NielsHoppe\\PHPCSS\\Syntax\\Statements\\ImportStatement&#45;&gt;\\NielsHoppe\\PHPCSS\\Syntax\\Statements\\AtRuleStatement -->
<g id="edge4" class="edge"><title>\\NielsHoppe\\PHPCSS\\Syntax\\Statements\\ImportStatement&#45;&gt;\\NielsHoppe\\PHPCSS\\Syntax\\Statements\\AtRuleStatement</title>
<path fill="none" stroke="black" d="M544.804,-382C520.459,-382 491.984,-382 466.627,-382"/>
<polygon fill="none" stroke="black" points="466.342,-378.5 456.342,-382 466.342,-385.5 466.342,-378.5"/>
</g>
<!-- \\NielsHoppe\\PHPCSS\\Syntax\\Statements\\Declaration -->
<g id="node13" class="node"><title>\\NielsHoppe\\PHPCSS\\Syntax\\Statements\\Declaration</title>
<polygon fill="none" stroke="black" points="649.5,-346 558.5,-346 558.5,-310 649.5,-310 649.5,-346"/>
<text text-anchor="middle" x="604" y="-325.2" font-family="Courier,monospace" font-size="11.00">Declaration</text>
</g>
<!-- \\NielsHoppe\\PHPCSS\\Syntax\\Statements\\Statement -->
<g id="node15" class="node"><title>\\NielsHoppe\\PHPCSS\\Syntax\\Statements\\Statement</title>
<polygon fill="none" stroke="black" points="266,-373 182,-373 182,-337 266,-337 266,-373"/>
<text text-anchor="start" x="190" y="-358.2" font-family="Courier,monospace" font-size="11.00">«abstract»</text>
<text text-anchor="start" x="193.5" y="-346.2" font-family="Courier,monospace" font-size="11.00">Statement</text>
</g>
<!-- \\NielsHoppe\\PHPCSS\\Syntax\\Statements\\AtRuleStatement&#45;&gt;\\NielsHoppe\\PHPCSS\\Syntax\\Statements\\Statement -->
<g id="edge8" class="edge"><title>\\NielsHoppe\\PHPCSS\\Syntax\\Statements\\AtRuleStatement&#45;&gt;\\NielsHoppe\\PHPCSS\\Syntax\\Statements\\Statement</title>
<path fill="none" stroke="black" d="M337.63,-372.784C317.701,-369.637 295.578,-366.144 276.251,-363.092"/>
<polygon fill="none" stroke="black" points="276.555,-359.597 266.131,-361.494 275.463,-366.511 276.555,-359.597"/>
</g>
<!-- \\NielsHoppe\\PHPCSS\\Printable -->
<g id="node21" class="node"><title>\\NielsHoppe\\PHPCSS\\Printable</title>
<polygon fill="none" stroke="black" points="109.5,-373 32.5,-373 32.5,-337 109.5,-337 109.5,-373"/>
<text text-anchor="middle" x="71" y="-352.2" font-family="Courier,monospace" font-size="11.00">Printable</text>
</g>
<!-- \\NielsHoppe\\PHPCSS\\Syntax\\Statements\\Statement&#45;&gt;\\NielsHoppe\\PHPCSS\\Printable -->
<g id="edge10" class="edge"><title>\\NielsHoppe\\PHPCSS\\Syntax\\Statements\\Statement&#45;&gt;\\NielsHoppe\\PHPCSS\\Printable</title>
<path fill="none" stroke="black" stroke-dasharray="1,5" d="M181.739,-355C162.554,-355 139.627,-355 119.703,-355"/>
<polygon fill="none" stroke="black" points="119.593,-351.5 109.593,-355 119.593,-358.5 119.593,-351.5"/>
</g>
<!-- \\NielsHoppe\\PHPCSS\\Syntax\\Statements\\Ruleset -->
<g id="node16" class="node"><title>\\NielsHoppe\\PHPCSS\\Syntax\\Statements\\Ruleset</title>
<polygon fill="none" stroke="black" points="429,-346 365,-346 365,-310 429,-310 429,-346"/>
<text text-anchor="middle" x="397" y="-325.2" font-family="Courier,monospace" font-size="11.00">Ruleset</text>
</g>
<!-- \\NielsHoppe\\PHPCSS\\Syntax\\Statements\\Ruleset&#45;&gt;\\NielsHoppe\\PHPCSS\\Syntax\\Statements\\Statement -->
<g id="edge13" class="edge"><title>\\NielsHoppe\\PHPCSS\\Syntax\\Statements\\Ruleset&#45;&gt;\\NielsHoppe\\PHPCSS\\Syntax\\Statements\\Statement</title>
<path fill="none" stroke="black" d="M364.636,-332.952C339.882,-336.861 304.845,-342.393 276.06,-346.938"/>
<polygon fill="none" stroke="black" points="275.498,-343.483 266.166,-348.5 276.59,-350.398 275.498,-343.483"/>
</g>
<!-- \\NielsHoppe\\PHPCSS\\Syntax\\Stylesheet -->
<g id="node17" class="node"><title>\\NielsHoppe\\PHPCSS\\Syntax\\Stylesheet</title>
<polygon fill="none" stroke="black" points="646,-292 562,-292 562,-256 646,-256 646,-292"/>
<text text-anchor="middle" x="604" y="-271.2" font-family="Courier,monospace" font-size="11.00">Stylesheet</text>
</g>
<!-- \\NielsHoppe\\PHPCSS\\Color\\RGBColor -->
<g id="node18" class="node"><title>\\NielsHoppe\\PHPCSS\\Color\\RGBColor</title>
<polygon fill="none" stroke="black" points="639.5,-212 568.5,-212 568.5,-176 639.5,-176 639.5,-212"/>
<text text-anchor="middle" x="604" y="-191.2" font-family="Courier,monospace" font-size="11.00">RGBColor</text>
</g>
<!-- \\NielsHoppe\\PHPCSS\\Color\\HSLColor -->
<g id="node19" class="node"><title>\\NielsHoppe\\PHPCSS\\Color\\HSLColor</title>
<polygon fill="none" stroke="black" points="639.5,-158 568.5,-158 568.5,-122 639.5,-122 639.5,-158"/>
<text text-anchor="middle" x="604" y="-137.2" font-family="Courier,monospace" font-size="11.00">HSLColor</text>
</g>
<!-- \\NielsHoppe\\PHPCSS\\Util -->
<g id="node20" class="node"><title>\\NielsHoppe\\PHPCSS\\Util</title>
<polygon fill="none" stroke="black" points="631,-104 577,-104 577,-68 631,-68 631,-104"/>
<text text-anchor="middle" x="604" y="-83.2" font-family="Courier,monospace" font-size="11.00">Util</text>
</g>
</g>
</svg>
